<?xml version="1.0" standalone="no"?><!DOCTYPE svg PUBLIC "-//W3C//DTD SVG 1.1//EN" "http://www.w3.org/Graphics/SVG/1.1/DTD/svg11.dtd"><svg t="1484367821275" class="icon" style="" viewBox="0 0 1024 1024" version="1.1" xmlns="http://www.w3.org/2000/svg" p-id="2036" id="mx_n_1484367821277" xmlns:xlink="http://www.w3.org/1999/xlink" width="200" height="200"><defs><style type="text/css"></style></defs><path d="M255.9 512 255.9 512c-35.6 0-64.5-28.9-64.5-64.5l0 0c0-35.6 28.9-64.5 64.5-64.5l0 0c35.6 0 64.5 28.9 64.5 64.5l0 0C320.4 483.1 291.5 512 255.9 512z" p-id="2037" fill="#5EFDFF"></path><path d="M512.9 512 512.9 512c-35.6 0-64.5-28.9-64.5-64.5l0 0c0-35.6 28.9-64.5 64.5-64.5l0 0c35.6 0 64.5 28.9 64.5 64.5l0 0C577.4 483.1 548.6 512 512.9 512z" p-id="2038" class="" fill="#5EFDFF"></path><path d="M770 512 770 512c-35.6 0-64.5-28.9-64.5-64.5l0 0c0-35.6 28.9-64.5 64.5-64.5l0 0c35.6 0 64.5 28.9 64.5 64.5l0 0C834.5 483.1 805.6 512 770 512z" p-id="2039" fill="#5EFDFF"></path></svg>