<?xml version="1.0" encoding="UTF-8" standalone="no"?>
<svg width="645px" height="336px" viewBox="0 0 645 336" version="1.1" xmlns="http://www.w3.org/2000/svg" xmlns:xlink="http://www.w3.org/1999/xlink">
    <!-- Generator: Sketch 3.6 (26304) - http://www.bohemiancoding.com/sketch -->
    <title>Artboard</title>
    <desc>Created with Sketch.</desc>
    <defs></defs>
    <g id="Page-1" stroke="none" stroke-width="1" fill="none" fill-rule="evenodd">
        <g id="Artboard">
            <path d="M0,50 L645,50 L645,321.001047 C645,329.28474 638.286504,336 630.005842,336 L14.9941575,336 C6.71311298,336 0,329.278505 0,321.00813 L0,50 Z" id="Rectangle-9" fill="#0B486B"></path>
            <path d="M0,16.0016487 C0,7.71646689 6.71349553,1 14.9941575,1 L630.005842,1 C638.286887,1 645,7.71726234 645,16.0016487 L645,51 L0,51 L0,16.0016487 Z" id="Rectangle-10" fill="#00A0B0"></path>
            <g id="Group-+-Group-+-});" transform="translate(57.000000, 118.000000)">
                <g id="Group" transform="translate(1.000000, 0.000000)">
                    <path d="M8.328125,37.0273438 L8.328125,33.9609375 C7.4557248,33.9609375 6.55078594,33.915365 5.61328125,33.8242188 C4.67577656,33.7330725 3.7968791,33.5930999 2.9765625,33.4042969 C2.1562459,33.2154938 1.21224492,32.8802107 0.14453125,32.3984375 L0.14453125,28.6484375 C1.00391055,29.091148 1.84700107,29.4687484 2.67382812,29.78125 C3.50065518,30.0937516 4.37304229,30.3411449 5.29101562,30.5234375 C6.20898896,30.7057301 7.22134863,30.8359371 8.328125,30.9140625 L8.328125,20.0351562 L6.23828125,18.9023438 C2.27992812,16.7799373 0.30078125,14.2148588 0.30078125,11.2070312 C0.30078125,9.60546074 0.958326758,8.04623154 2.2734375,6.52929688 C3.58854824,5.01236221 5.60675723,4.13671992 8.328125,3.90234375 L8.328125,0.66015625 L11.0625,0.66015625 L11.0625,3.90234375 C12.598966,3.90234375 14.4153541,4.16926816 16.5117188,4.703125 L16.5117188,8.08203125 L15.828125,7.88671875 C13.8619693,7.33984102 12.2734436,7.00781309 11.0625,6.890625 L11.0625,17.515625 L13.25,18.765625 C15.307302,19.9505268 16.7167931,21.1158797 17.4785156,22.2617188 C18.2402382,23.4075578 18.6210938,24.6249936 18.6210938,25.9140625 C18.6210938,27.0729225 18.3313831,28.1959581 17.7519531,29.2832031 C17.1725231,30.3704481 16.3424533,31.3046836 15.2617188,32.0859375 C14.1809842,32.8671914 12.7812586,33.4075506 11.0625,33.7070312 L11.0625,37.0273438 L8.328125,37.0273438 Z M8.328125,15.875 L8.328125,6.8515625 C7.01301426,7.15104316 6.00065459,7.64582988 5.29101562,8.3359375 C4.58137666,9.02604512 4.2265625,9.83332871 4.2265625,10.7578125 C4.2265625,11.6302127 4.52929385,12.4667929 5.13476562,13.2675781 C5.7402374,14.0683634 6.80467988,14.9374953 8.328125,15.875 L8.328125,15.875 Z M11.0625,21.65625 L11.0625,30.640625 C12.4817779,30.13281 13.4420548,29.5110714 13.9433594,28.7753906 C14.444664,28.0397099 14.6953125,27.2161504 14.6953125,26.3046875 C14.6953125,25.4192664 14.4479191,24.6608104 13.953125,24.0292969 C13.4583309,23.3977833 12.4947988,22.6067756 11.0625,21.65625 L11.0625,21.65625 Z" id="$" fill="#D7618D"></path>
                    <path d="M32.9921875,34.9179688 C32.1197873,34.9179688 31.3710969,34.6054719 30.7460938,33.9804688 C30.1210906,33.3554656 29.8085938,32.6067752 29.8085938,31.734375 C29.8085938,30.8489539 30.1243458,30.0970083 30.7558594,29.4785156 C31.3873729,28.8600229 32.1328082,28.5507812 32.9921875,28.5507812 C33.8515668,28.5507812 34.5970021,28.8600229 35.2285156,29.4785156 C35.8600292,30.0970083 36.1757812,30.8489539 36.1757812,31.734375 C36.1757812,32.6067752 35.8632844,33.3554656 35.2382812,33.9804688 C34.6132781,34.6054719 33.8645877,34.9179688 32.9921875,34.9179688 L32.9921875,34.9179688 Z M49.8867188,34 L49.8867188,12.1835938 L53.5195312,12.1835938 L53.5195312,16.9492188 C54.6523494,15.1523348 55.9511646,13.8079472 57.4160156,12.9160156 C58.8808667,12.0240841 60.5117098,11.578125 62.3085938,11.578125 C63.6237045,11.578125 64.9387955,11.7799459 66.2539062,12.1835938 L66.2539062,20.0546875 L62.7578125,20.0546875 L62.7578125,15.0742188 C62.1458303,14.9700516 61.6640643,14.9179688 61.3125,14.9179688 C59.9583266,14.9179688 58.6302148,15.4518176 57.328125,16.5195312 C56.0260352,17.5872449 54.7565166,19.1887914 53.5195312,21.3242188 L53.5195312,34 L49.8867188,34 Z M90.1796875,32.5546875 C87.2760271,33.9349027 84.5286588,34.625 81.9375,34.625 C79.9713443,34.625 78.2135494,34.1367236 76.6640625,33.1601562 C75.1145756,32.1835889 73.8743536,30.7871185 72.9433594,28.9707031 C72.0123651,27.1542878 71.546875,25.2109479 71.546875,23.140625 C71.546875,21.1484275 71.9895789,19.2343842 72.875,17.3984375 C73.7604211,15.5624908 74.9973879,14.1334687 76.5859375,13.1113281 C78.1744871,12.0891876 79.9453027,11.578125 81.8984375,11.578125 C84.4895963,11.578125 86.5696536,12.5025949 88.1386719,14.3515625 C89.7076901,16.2005301 90.4921875,19.0520641 90.4921875,22.90625 L90.4921875,23.6875 L75.453125,23.6875 C75.453125,25.1979242 75.7688771,26.5781188 76.4003906,27.828125 C77.0319042,29.0781312 77.861974,30.0156219 78.890625,30.640625 C79.919276,31.2656281 81.0911393,31.578125 82.40625,31.578125 C84.7500117,31.578125 87.3411316,30.7968828 90.1796875,29.234375 L90.1796875,32.5546875 Z M75.6679688,20.9726562 L86.546875,20.9726562 L86.546875,20.4453125 C86.546875,18.6614494 86.1106814,17.2421928 85.2382812,16.1875 C84.3658811,15.1328072 83.2005281,14.6054688 81.7421875,14.6054688 C80.270826,14.6054688 78.9980522,15.1425728 77.9238281,16.2167969 C76.849604,17.291021 76.0976584,18.8762916 75.6679688,20.9726562 L75.6679688,20.9726562 Z M110.375,29.0976562 C109.268224,30.920582 107.936857,32.2942662 106.380859,33.21875 C104.824862,34.1432338 103.39584,34.6054688 102.09375,34.6054688 C100.270824,34.6054688 98.6334708,33.8177162 97.1816406,32.2421875 C95.7298104,30.6666588 95.0039062,28.2773598 95.0039062,25.0742188 C95.0039062,22.5481645 95.4856723,20.2923276 96.4492188,18.3066406 C97.4127652,16.3209536 98.7018148,14.7519589 100.316406,13.5996094 C101.930998,12.4472599 103.929676,11.8710938 106.3125,11.8710938 C107.002608,11.8710938 108.044264,11.9427076 109.4375,12.0859375 C109.645834,12.1119793 109.958331,12.1445311 110.375,12.1835938 L114.027344,12.1835938 L114.027344,27.59375 C114.027344,30.2239715 114.300779,32.3593668 114.847656,34 L111.058594,34 C110.772134,32.8020773 110.544272,31.1679791 110.375,29.0976562 L110.375,29.0976562 Z M110.375,24.78125 L110.375,15.4257812 C109.085931,15.0872379 107.888026,14.9179688 106.78125,14.9179688 C104.541655,14.9179688 102.67644,15.7838455 101.185547,17.515625 C99.694654,19.2474045 98.9492188,21.6041518 98.9492188,24.5859375 C98.9492188,26.7474066 99.3561157,28.3782497 100.169922,29.4785156 C100.983728,30.5787815 101.911453,31.1289062 102.953125,31.1289062 C104.085943,31.1289062 105.335931,30.5559953 106.703125,29.4101562 C108.070319,28.2643172 109.294265,26.7213639 110.375,24.78125 L110.375,24.78125 Z M134.613281,29.0976562 C133.506505,30.920582 132.175138,32.2942662 130.619141,33.21875 C129.063143,34.1432338 127.634121,34.6054688 126.332031,34.6054688 C124.509105,34.6054688 122.871752,33.8177162 121.419922,32.2421875 C119.968092,30.6666588 119.242188,28.2773598 119.242188,25.0742188 C119.242188,22.5481645 119.723954,20.2923276 120.6875,18.3066406 C121.651046,16.3209536 122.940096,14.7519589 124.554688,13.5996094 C126.169279,12.4472599 128.167957,11.8710938 130.550781,11.8710938 C131.240889,11.8710938 132.282545,11.9427076 133.675781,12.0859375 C133.884116,12.1119793 134.196613,12.1445311 134.613281,12.1835938 L134.613281,2.4765625 L138.265625,2.4765625 L138.265625,34 L134.613281,34 L134.613281,29.0976562 Z M134.613281,24.78125 L134.613281,15.4257812 C133.324212,15.0872379 132.126308,14.9179688 131.019531,14.9179688 C128.779937,14.9179688 126.914721,15.7838455 125.423828,17.515625 C123.932935,19.2474045 123.1875,21.6041518 123.1875,24.5859375 C123.1875,26.7474066 123.594397,28.3782497 124.408203,29.4785156 C125.222009,30.5787815 126.149734,31.1289062 127.191406,31.1289062 C128.324224,31.1289062 129.574212,30.5559953 130.941406,29.4101562 C132.308601,28.2643172 133.532547,26.7213639 134.613281,24.78125 L134.613281,24.78125 Z M152.074219,33.1210938 L141.996094,12.1835938 L146,12.1835938 L154.027344,28.5507812 L160.746094,12.1835938 L164.398438,12.1835938 L155.941406,32.4570312 C154.157543,36.7409068 152.461597,39.5859305 150.853516,40.9921875 C149.245435,42.3984445 147.165377,43.1015625 144.613281,43.1015625 C143.506505,43.1015625 142.516931,43.0039072 141.644531,42.8085938 L141.644531,39.6054688 C142.64714,39.9179703 143.604162,40.0742188 144.515625,40.0742188 C145.687506,40.0742188 146.729162,39.8463564 147.640625,39.390625 C148.552088,38.9348936 149.385413,38.12761 150.140625,36.96875 C150.895837,35.80989 151.429686,34.8072959 151.742188,33.9609375 L152.074219,33.1210938 Z M185.960938,41.265625 C182.354149,41.0442697 179.313814,40.0253997 176.839844,38.2089844 C174.365873,36.392569 172.389981,33.9414217 170.912109,30.8554688 C169.434237,27.7695158 168.695312,24.6770988 168.695312,21.578125 C168.695312,18.4791512 169.434237,15.3867342 170.912109,12.3007813 C172.389981,9.21482832 174.365873,6.76368096 176.839844,4.94726562 C179.313814,3.13085029 182.354149,2.10546992 185.960938,1.87109375 L185.960938,4.91796875 C183.23957,5.16536582 180.899098,6.08007021 178.939453,7.66210938 C176.979808,9.24414854 175.44011,11.2591023 174.320312,13.7070312 C173.200515,16.1549602 172.640625,18.7786318 172.640625,21.578125 C172.640625,24.3776182 173.200515,27.0012898 174.320312,29.4492188 C175.44011,31.8971477 176.979808,33.9088463 178.939453,35.484375 C180.899098,37.0599037 183.23957,37.9778633 185.960938,38.2382812 L185.960938,41.265625 Z" id=".ready(" fill="#E4E4E4"></path>
                    <path d="M197.105469,34 L197.105469,17.0273438 L192.261719,17.0273438 L192.261719,14 L197.105469,14 L197.105469,12.984375 C197.105469,10.1067564 197.430986,7.97787148 198.082031,6.59765625 C198.733076,5.21744102 199.738925,4.08463984 201.099609,3.19921875 C202.460293,2.31379766 204.260405,1.87109375 206.5,1.87109375 C208.192717,1.87109375 209.91145,2.04687324 211.65625,2.3984375 L211.65625,5.85546875 C209.76822,5.23046563 208.095059,4.91796875 206.636719,4.91796875 C205.477859,4.91796875 204.455734,5.13281035 203.570312,5.5625 C202.684891,5.99218965 201.991539,6.69205244 201.490234,7.66210938 C200.98893,8.63216631 200.738281,10.2760301 200.738281,12.59375 L200.738281,14 L209.390625,14 L209.390625,17.0273438 L200.738281,17.0273438 L200.738281,34 L197.105469,34 Z M233.980469,12.1835938 L233.980469,34 L230.347656,34 L230.347656,29.2148438 C229.175775,31.0117277 227.873705,32.3593705 226.441406,33.2578125 C225.009107,34.1562545 223.57683,34.6054688 222.144531,34.6054688 C220.868483,34.6054688 219.699875,34.2636753 218.638672,33.5800781 C217.577469,32.896481 216.838544,31.9980524 216.421875,30.8847656 C216.005206,29.7714788 215.796875,27.6002766 215.796875,24.3710938 L215.796875,12.1835938 L219.429688,12.1835938 L219.429688,24.8203125 C219.429688,26.9166771 219.530598,28.3001269 219.732422,28.9707031 C219.934246,29.6412794 220.305336,30.1914041 220.845703,30.6210938 C221.38607,31.0507834 221.968747,31.265625 222.59375,31.265625 C223.869798,31.265625 225.240227,30.6634175 226.705078,29.4589844 C228.169929,28.2545513 229.38411,26.7343842 230.347656,24.8984375 L230.347656,12.1835938 L233.980469,12.1835938 Z M240.035156,34 L240.035156,12.1835938 L243.667969,12.1835938 L243.667969,16.9492188 C244.709641,15.2695229 245.966138,13.9544318 247.4375,13.0039062 C248.908862,12.0533807 250.380201,11.578125 251.851562,11.578125 C253.140631,11.578125 254.312495,11.9199185 255.367188,12.6035156 C256.42188,13.2871128 257.160805,14.1822861 257.583984,15.2890625 C258.007164,16.3958389 258.21875,18.5702963 258.21875,21.8125 L258.21875,34 L254.585938,34 L254.585938,21.3632812 C254.585938,19.2669166 254.485027,17.8834669 254.283203,17.2128906 C254.081379,16.5423144 253.710289,15.9921896 253.169922,15.5625 C252.629555,15.1328104 252.040368,14.9179688 251.402344,14.9179688 C250.126296,14.9179688 248.755867,15.5234314 247.291016,16.734375 C245.826165,17.9453186 244.618494,19.4622305 243.667969,21.2851562 L243.667969,34 L240.035156,34 Z M282.398438,33.375 C279.963529,34.1953166 277.645844,34.6054688 275.445312,34.6054688 C273.257802,34.6054688 271.314462,34.1009165 269.615234,33.0917969 C267.916007,32.0826772 266.591151,30.7155034 265.640625,28.9902344 C264.690099,27.2649653 264.214844,25.3020943 264.214844,23.1015625 C264.214844,19.7942543 265.292307,17.0468859 267.447266,14.859375 C269.602224,12.6718641 272.20311,11.578125 275.25,11.578125 C277.502615,11.578125 279.885404,12.0012979 282.398438,12.8476562 L282.398438,16.34375 C279.859362,15.18489 277.58725,14.6054688 275.582031,14.6054688 C274.2539,14.6054688 273.003912,14.9342415 271.832031,15.5917969 C270.66015,16.2493522 269.755212,17.2747326 269.117188,18.6679688 C268.479163,20.0612049 268.160156,21.4934822 268.160156,22.9648438 C268.160156,24.9309994 268.775384,26.8059807 270.005859,28.5898438 C271.236334,30.3737068 273.166654,31.265625 275.796875,31.265625 C276.59115,31.265625 277.372392,31.210287 278.140625,31.0996094 C278.908858,30.9889317 280.328115,30.5820348 282.398438,29.8789062 L282.398438,33.375 Z M306.285156,33.1210938 C304.579419,33.8372432 303.342452,34.2636712 302.574219,34.4003906 C301.805986,34.5371101 301.063806,34.6054688 300.347656,34.6054688 C298.824211,34.6054688 297.430996,34.3125029 296.167969,33.7265625 C294.904942,33.1406221 293.951175,32.2747453 293.306641,31.1289062 C292.662106,29.9830672 292.339844,28.2122516 292.339844,25.8164062 L292.339844,17.0273438 L286.890625,17.0273438 L286.890625,14 L292.339844,14 L292.339844,5.2109375 L295.972656,5.2109375 L295.972656,14 L305.679688,14 L305.679688,17.0273438 L295.972656,17.0273438 L295.972656,25.7578125 C295.972656,27.5156338 296.180988,28.7558558 296.597656,29.4785156 C297.014325,30.2011755 297.57096,30.7317691 298.267578,31.0703125 C298.964196,31.4088559 299.787756,31.578125 300.738281,31.578125 C302.496103,31.578125 304.345042,31.0247451 306.285156,29.9179688 L306.285156,33.1210938 Z M318.160156,34 L318.160156,15.2109375 L312.105469,15.2109375 L312.105469,12.1835938 L321.792969,12.1835938 L321.792969,30.9726562 L327.867188,30.9726562 L327.867188,34 L318.160156,34 Z M317.554688,4.3125 C317.554688,3.4921834 317.834633,2.88021035 318.394531,2.4765625 C318.95443,2.07291465 319.481768,1.87109375 319.976562,1.87109375 C320.484378,1.87109375 321.018226,2.07291465 321.578125,2.4765625 C322.138024,2.88021035 322.417969,3.4921834 322.417969,4.3125 C322.417969,5.1197957 322.138024,5.7252584 321.578125,6.12890625 C321.018226,6.5325541 320.484378,6.734375 319.976562,6.734375 C319.481768,6.734375 318.95443,6.5325541 318.394531,6.12890625 C317.834633,5.7252584 317.554688,5.1197957 317.554688,4.3125 L317.554688,4.3125 Z M345.035156,34.6054688 C341.910141,34.6054688 339.410166,33.5149849 337.535156,31.3339844 C335.660147,29.1529839 334.722656,26.4023604 334.722656,23.0820312 C334.722656,19.7617021 335.660147,17.0143338 337.535156,14.8398438 C339.410166,12.6653537 341.910141,11.578125 345.035156,11.578125 C348.147151,11.578125 350.640616,12.6653537 352.515625,14.8398438 C354.390634,17.0143338 355.328125,19.7617021 355.328125,23.0820312 C355.328125,26.4023604 354.390634,29.1529839 352.515625,31.3339844 C350.640616,33.5149849 348.147151,34.6054688 345.035156,34.6054688 L345.035156,34.6054688 Z M345.035156,31.578125 C346.97527,31.578125 348.518223,30.8229242 349.664062,29.3125 C350.809902,27.8020758 351.382812,25.7252736 351.382812,23.0820312 C351.382812,20.4518098 350.809902,18.381518 349.664062,16.8710938 C348.518223,15.3606695 346.97527,14.6054688 345.035156,14.6054688 C343.082021,14.6054688 341.532558,15.3606695 340.386719,16.8710938 C339.24088,18.381518 338.667969,20.4518098 338.667969,23.0820312 C338.667969,25.7252736 339.24088,27.8020758 340.386719,29.3125 C341.532558,30.8229242 343.082021,31.578125 345.035156,31.578125 L345.035156,31.578125 Z M360.054688,34 L360.054688,12.1835938 L363.6875,12.1835938 L363.6875,16.9492188 C364.729172,15.2695229 365.98567,13.9544318 367.457031,13.0039062 C368.928393,12.0533807 370.399732,11.578125 371.871094,11.578125 C373.160163,11.578125 374.332026,11.9199185 375.386719,12.6035156 C376.441412,13.2871128 377.180336,14.1822861 377.603516,15.2890625 C378.026695,16.3958389 378.238281,18.5702963 378.238281,21.8125 L378.238281,34 L374.605469,34 L374.605469,21.3632812 C374.605469,19.2669166 374.504558,17.8834669 374.302734,17.2128906 C374.10091,16.5423144 373.72982,15.9921896 373.189453,15.5625 C372.649086,15.1328104 372.059899,14.9179688 371.421875,14.9179688 C370.145827,14.9179688 368.775398,15.5234314 367.310547,16.734375 C365.845696,17.9453186 364.638026,19.4622305 363.6875,21.2851562 L363.6875,34 L360.054688,34 Z" id="function" fill="#93C627"></path>
                    <path d="M401.9375,41.265625 C398.330711,41.0442697 395.290377,40.0253997 392.816406,38.2089844 C390.342436,36.392569 388.366544,33.9414217 386.888672,30.8554688 C385.4108,27.7695158 384.671875,24.6770988 384.671875,21.578125 C384.671875,18.4791512 385.4108,15.3867342 386.888672,12.3007813 C388.366544,9.21482832 390.342436,6.76368096 392.816406,4.94726562 C395.290377,3.13085029 398.330711,2.10546992 401.9375,1.87109375 L401.9375,4.91796875 C399.216132,5.16536582 396.875661,6.08007021 394.916016,7.66210938 C392.95637,9.24414854 391.416672,11.2591023 390.296875,13.7070312 C389.177078,16.1549602 388.617188,18.7786318 388.617188,21.578125 C388.617188,24.3776182 389.177078,27.0012898 390.296875,29.4492188 C391.416672,31.8971477 392.95637,33.9088463 394.916016,35.484375 C396.875661,37.0599037 399.216132,37.9778633 401.9375,38.2382812 L401.9375,41.265625 Z M408.070312,1.87109375 C411.677101,2.10546992 414.717436,3.13085029 417.191406,4.94726562 C419.665377,6.76368096 421.641269,9.21482832 423.119141,12.3007813 C424.597013,15.3867342 425.335938,18.4791512 425.335938,21.578125 C425.335938,24.6770988 424.597013,27.7695158 423.119141,30.8554688 C421.641269,33.9414217 419.665377,36.392569 417.191406,38.2089844 C414.717436,40.0253997 411.677101,41.0442697 408.070312,41.265625 L408.070312,38.2382812 C410.79168,37.9778633 413.132152,37.0599037 415.091797,35.484375 C417.051442,33.9088463 418.594395,31.8971477 419.720703,29.4492188 C420.847011,27.0012898 421.410156,24.3776182 421.410156,21.578125 C421.410156,18.7786318 420.847011,16.1549602 419.720703,13.7070312 C418.594395,11.2591023 417.051442,9.24414854 415.091797,7.66210938 C413.132152,6.08007021 410.79168,5.16536582 408.070312,4.91796875 L408.070312,1.87109375 Z M463.695312,21.578125 C464.906256,22.216149 465.794919,22.8411428 466.361328,23.453125 C466.927737,24.0651072 467.35091,24.6933562 467.630859,25.3378906 C467.910809,25.9824251 468.050781,26.72135 468.050781,27.5546875 C468.050781,28.2968787 467.920574,29.2669211 467.660156,30.4648438 L467.171875,32.6914062 C466.911457,33.9023498 466.78125,34.8007783 466.78125,35.3867188 C466.78125,36.1809936 467.090492,36.8548149 467.708984,37.4082031 C468.327477,37.9615913 469.600251,38.2382812 471.527344,38.2382812 L474.554688,38.2382812 L474.554688,41.265625 L471.488281,41.265625 C467.920555,41.265625 465.622401,40.6927141 464.59375,39.546875 C463.565099,38.4010359 463.050781,37.105476 463.050781,35.6601562 C463.050781,34.8919232 463.148437,34.0651086 463.34375,33.1796875 L463.695312,31.6171875 L464.027344,29.9179688 L464.261719,28.8828125 C464.352865,28.4010393 464.398438,27.9322939 464.398438,27.4765625 C464.398438,26.2656189 463.991541,25.230473 463.177734,24.3710938 C462.363928,23.5117145 460.928396,23.0820312 458.871094,23.0820312 L457.132812,23.0820312 L457.132812,20.0546875 L458.871094,20.0546875 C460.902354,20.0546875 462.331376,19.6315146 463.158203,18.7851562 C463.98503,17.9387979 464.398438,16.8841209 464.398438,15.6210938 C464.398438,15.1523414 464.352865,14.6966168 464.261719,14.2539062 L464.027344,13.2382812 L463.695312,11.5390625 L463.34375,9.9765625 C463.148437,9.07812051 463.050781,8.24479551 463.050781,7.4765625 C463.050781,6.04426367 463.565099,4.75195889 464.59375,3.59960938 C465.622401,2.44725986 467.920555,1.87109375 471.488281,1.87109375 L474.554688,1.87109375 L474.554688,4.91796875 L471.527344,4.91796875 C469.613272,4.91796875 468.343753,5.19465869 467.71875,5.74804688 C467.093747,6.30143506 466.78125,6.9817668 466.78125,7.7890625 C466.78125,8.36198203 466.911457,9.2539002 467.171875,10.4648438 L467.660156,12.6914062 C467.920574,13.8893289 468.050781,14.8593713 468.050781,15.6015625 C468.050781,16.4349 467.910809,17.1738249 467.630859,17.8183594 C467.35091,18.4628938 466.927737,19.0911428 466.361328,19.703125 C465.794919,20.3151072 464.906256,20.940101 463.695312,21.578125 L463.695312,21.578125 Z" id="()-{" fill="#E4E4E4"></path>
                </g>
                <g id="Group" transform="translate(101.000000, 59.000000)">
                    <path d="M8.328125,37.0273438 L8.328125,33.9609375 C7.4557248,33.9609375 6.55078594,33.915365 5.61328125,33.8242188 C4.67577656,33.7330725 3.7968791,33.5930999 2.9765625,33.4042969 C2.1562459,33.2154938 1.21224492,32.8802107 0.14453125,32.3984375 L0.14453125,28.6484375 C1.00391055,29.091148 1.84700107,29.4687484 2.67382812,29.78125 C3.50065518,30.0937516 4.37304229,30.3411449 5.29101562,30.5234375 C6.20898896,30.7057301 7.22134863,30.8359371 8.328125,30.9140625 L8.328125,20.0351562 L6.23828125,18.9023438 C2.27992812,16.7799373 0.30078125,14.2148588 0.30078125,11.2070312 C0.30078125,9.60546074 0.958326758,8.04623154 2.2734375,6.52929688 C3.58854824,5.01236221 5.60675723,4.13671992 8.328125,3.90234375 L8.328125,0.66015625 L11.0625,0.66015625 L11.0625,3.90234375 C12.598966,3.90234375 14.4153541,4.16926816 16.5117188,4.703125 L16.5117188,8.08203125 L15.828125,7.88671875 C13.8619693,7.33984102 12.2734436,7.00781309 11.0625,6.890625 L11.0625,17.515625 L13.25,18.765625 C15.307302,19.9505268 16.7167931,21.1158797 17.4785156,22.2617188 C18.2402382,23.4075578 18.6210938,24.6249936 18.6210938,25.9140625 C18.6210938,27.0729225 18.3313831,28.1959581 17.7519531,29.2832031 C17.1725231,30.3704481 16.3424533,31.3046836 15.2617188,32.0859375 C14.1809842,32.8671914 12.7812586,33.4075506 11.0625,33.7070312 L11.0625,37.0273438 L8.328125,37.0273438 Z M8.328125,15.875 L8.328125,6.8515625 C7.01301426,7.15104316 6.00065459,7.64582988 5.29101562,8.3359375 C4.58137666,9.02604512 4.2265625,9.83332871 4.2265625,10.7578125 C4.2265625,11.6302127 4.52929385,12.4667929 5.13476562,13.2675781 C5.7402374,14.0683634 6.80467988,14.9374953 8.328125,15.875 L8.328125,15.875 Z M11.0625,21.65625 L11.0625,30.640625 C12.4817779,30.13281 13.4420548,29.5110714 13.9433594,28.7753906 C14.444664,28.0397099 14.6953125,27.2161504 14.6953125,26.3046875 C14.6953125,25.4192664 14.4479191,24.6608104 13.953125,24.0292969 C13.4583309,23.3977833 12.4947988,22.6067756 11.0625,21.65625 L11.0625,21.65625 Z" id="$" fill="#D7618D"></path>
                    <path d="M41.9375,41.265625 C38.3307111,41.0442697 35.290377,40.0253997 32.8164062,38.2089844 C30.3424355,36.392569 28.3665438,33.9414217 26.8886719,30.8554688 C25.4107999,27.7695158 24.671875,24.6770988 24.671875,21.578125 C24.671875,18.4791512 25.4107999,15.3867342 26.8886719,12.3007813 C28.3665438,9.21482832 30.3424355,6.76368096 32.8164062,4.94726562 C35.290377,3.13085029 38.3307111,2.10546992 41.9375,1.87109375 L41.9375,4.91796875 C39.2161322,5.16536582 36.8756608,6.08007021 34.9160156,7.66210938 C32.9563704,9.24414854 31.4166723,11.2591023 30.296875,13.7070312 C29.1770777,16.1549602 28.6171875,18.7786318 28.6171875,21.578125 C28.6171875,24.3776182 29.1770777,27.0012898 30.296875,29.4492188 C31.4166723,31.8971477 32.9563704,33.9088463 34.9160156,35.484375 C36.8756608,37.0599037 39.2161322,37.9778633 41.9375,38.2382812 L41.9375,41.265625 Z" id="(" fill="#E4E4E4"></path>
                    <path d="M192.066406,1.87109375 C195.673195,2.10546992 198.713529,3.13085029 201.1875,4.94726562 C203.661471,6.76368096 205.637362,9.21482832 207.115234,12.3007813 C208.593106,15.3867342 209.332031,18.4791512 209.332031,21.578125 C209.332031,24.6770988 208.593106,27.7695158 207.115234,30.8554688 C205.637362,33.9414217 203.661471,36.392569 201.1875,38.2089844 C198.713529,40.0253997 195.673195,41.0442697 192.066406,41.265625 L192.066406,38.2382812 C194.787774,37.9778633 197.128245,37.0599037 199.087891,35.484375 C201.047536,33.9088463 202.590489,31.8971477 203.716797,29.4492188 C204.843105,27.0012898 205.40625,24.3776182 205.40625,21.578125 C205.40625,18.7786318 204.843105,16.1549602 203.716797,13.7070312 C202.590489,11.2591023 201.047536,9.24414854 199.087891,7.66210938 C197.128245,6.08007021 194.787774,5.16536582 192.066406,4.91796875 L192.066406,1.87109375 Z M224.996094,34.9179688 C224.123694,34.9179688 223.375003,34.6054719 222.75,33.9804688 C222.124997,33.3554656 221.8125,32.6067752 221.8125,31.734375 C221.8125,30.8489539 222.128252,30.0970083 222.759766,29.4785156 C223.391279,28.8600229 224.136714,28.5507813 224.996094,28.5507813 C225.855473,28.5507813 226.600908,28.8600229 227.232422,29.4785156 C227.863935,30.0970083 228.179688,30.8489539 228.179688,31.734375 C228.179688,32.6067752 227.867191,33.3554656 227.242188,33.9804688 C226.617184,34.6054719 225.868494,34.9179688 224.996094,34.9179688 L224.996094,34.9179688 Z M258.277344,33.1210938 C256.571606,33.8372432 255.334639,34.2636712 254.566406,34.4003906 C253.798173,34.5371101 253.055993,34.6054688 252.339844,34.6054688 C250.816399,34.6054688 249.423183,34.3125029 248.160156,33.7265625 C246.897129,33.1406221 245.943363,32.2747453 245.298828,31.1289062 C244.654294,29.9830672 244.332031,28.2122516 244.332031,25.8164062 L244.332031,17.0273438 L238.882812,17.0273438 L238.882812,14 L244.332031,14 L244.332031,5.2109375 L247.964844,5.2109375 L247.964844,14 L257.671875,14 L257.671875,17.0273438 L247.964844,17.0273438 L247.964844,25.7578125 C247.964844,27.5156338 248.173175,28.7558558 248.589844,29.4785156 C249.006512,30.2011755 249.563148,30.7317691 250.259766,31.0703125 C250.956384,31.4088559 251.779943,31.578125 252.730469,31.578125 C254.48829,31.578125 256.33723,31.0247451 258.277344,29.9179688 L258.277344,33.1210938 Z M281.988281,12.1835938 L281.988281,34 L278.355469,34 L278.355469,29.2148438 C277.183588,31.0117277 275.881518,32.3593705 274.449219,33.2578125 C273.01692,34.1562545 271.584643,34.6054688 270.152344,34.6054688 C268.876296,34.6054688 267.707688,34.2636753 266.646484,33.5800781 C265.585281,32.896481 264.846356,31.9980524 264.429688,30.8847656 C264.013019,29.7714788 263.804688,27.6002766 263.804688,24.3710938 L263.804688,12.1835938 L267.4375,12.1835938 L267.4375,24.8203125 C267.4375,26.9166771 267.53841,28.3001269 267.740234,28.9707031 C267.942058,29.6412794 268.313148,30.1914041 268.853516,30.6210938 C269.393883,31.0507834 269.976559,31.265625 270.601562,31.265625 C271.877611,31.265625 273.24804,30.6634175 274.712891,29.4589844 C276.177742,28.2545513 277.391922,26.7343842 278.355469,24.8984375 L278.355469,12.1835938 L281.988281,12.1835938 Z M289.898438,34 L289.898438,12.1835938 L293.53125,12.1835938 L293.53125,16.9492188 C294.664068,15.1523348 295.962883,13.8079472 297.427734,12.9160156 C298.892585,12.0240841 300.523429,11.578125 302.320312,11.578125 C303.635423,11.578125 304.950514,11.7799459 306.265625,12.1835938 L306.265625,20.0546875 L302.769531,20.0546875 L302.769531,15.0742188 C302.157549,14.9700516 301.675783,14.9179688 301.324219,14.9179688 C299.970045,14.9179688 298.641934,15.4518176 297.339844,16.5195312 C296.037754,17.5872449 294.768235,19.1887914 293.53125,21.3242188 L293.53125,34 L289.898438,34 Z M312.046875,34 L312.046875,12.1835938 L315.679688,12.1835938 L315.679688,16.9492188 C316.721359,15.2695229 317.977857,13.9544318 319.449219,13.0039062 C320.92058,12.0533807 322.39192,11.578125 323.863281,11.578125 C325.15235,11.578125 326.324213,11.9199185 327.378906,12.6035156 C328.433599,13.2871128 329.172524,14.1822861 329.595703,15.2890625 C330.018882,16.3958389 330.230469,18.5702963 330.230469,21.8125 L330.230469,34 L326.597656,34 L326.597656,21.3632812 C326.597656,19.2669166 326.496746,17.8834669 326.294922,17.2128906 C326.093098,16.5423144 325.722008,15.9921896 325.181641,15.5625 C324.641273,15.1328104 324.052087,14.9179688 323.414062,14.9179688 C322.138014,14.9179688 320.767585,15.5234314 319.302734,16.734375 C317.837883,17.9453186 316.630213,19.4622305 315.679688,21.2851562 L315.679688,34 L312.046875,34 Z M345.015625,34.9179688 C341.578108,34.9179688 338.951181,33.4694155 337.134766,30.5722656 C335.31835,27.6751157 334.410156,23.7656496 334.410156,18.84375 C334.410156,13.9348713 335.31835,10.0319155 337.134766,7.13476562 C338.951181,4.23761572 341.578108,2.7890625 345.015625,2.7890625 C348.466163,2.7890625 351.096345,4.23761572 352.90625,7.13476562 C354.716155,10.0319155 355.621094,13.9348713 355.621094,18.84375 C355.621094,23.7656496 354.716155,27.6751157 352.90625,30.5722656 C351.096345,33.4694155 348.466163,34.9179688 345.015625,34.9179688 L345.015625,34.9179688 Z M345.015625,31.8710938 C346.916676,31.8710938 348.501947,30.7936306 349.771484,28.6386719 C351.041022,26.4837132 351.675781,23.2187719 351.675781,18.84375 C351.675781,14.4687281 351.041022,11.2037868 349.771484,9.04882812 C348.501947,6.89386943 346.916676,5.81640625 345.015625,5.81640625 C343.114574,5.81640625 341.529303,6.89386943 340.259766,9.04882812 C338.990228,11.2037868 338.355469,14.4687281 338.355469,18.84375 C338.355469,23.2187719 338.990228,26.4837132 340.259766,28.6386719 C341.529303,30.7936306 343.114574,31.8710938 345.015625,31.8710938 L345.015625,31.8710938 Z M360.054688,34 L360.054688,12.1835938 L363.6875,12.1835938 L363.6875,16.9492188 C364.729172,15.2695229 365.98567,13.9544318 367.457031,13.0039062 C368.928393,12.0533807 370.399732,11.578125 371.871094,11.578125 C373.160163,11.578125 374.332026,11.9199185 375.386719,12.6035156 C376.441412,13.2871128 377.180336,14.1822861 377.603516,15.2890625 C378.026695,16.3958389 378.238281,18.5702963 378.238281,21.8125 L378.238281,34 L374.605469,34 L374.605469,21.3632812 C374.605469,19.2669166 374.504558,17.8834669 374.302734,17.2128906 C374.10091,16.5423144 373.72982,15.9921896 373.189453,15.5625 C372.649086,15.1328104 372.059899,14.9179688 371.421875,14.9179688 C370.145827,14.9179688 368.775398,15.5234314 367.310547,16.734375 C365.845696,17.9453186 364.638026,19.4622305 363.6875,21.2851562 L363.6875,34 L360.054688,34 Z M401.96875,41.265625 C398.361961,41.0442697 395.321627,40.0253997 392.847656,38.2089844 C390.373686,36.392569 388.397794,33.9414217 386.919922,30.8554688 C385.44205,27.7695158 384.703125,24.6770988 384.703125,21.578125 C384.703125,18.4791512 385.44205,15.3867342 386.919922,12.3007813 C388.397794,9.21482832 390.373686,6.76368096 392.847656,4.94726562 C395.321627,3.13085029 398.361961,2.10546992 401.96875,1.87109375 L401.96875,4.91796875 C399.247382,5.16536582 396.906911,6.08007021 394.947266,7.66210938 C392.98762,9.24414854 391.447922,11.2591023 390.328125,13.7070312 C389.208328,16.1549602 388.648438,18.7786318 388.648438,21.578125 C388.648438,24.3776182 389.208328,27.0012898 390.328125,29.4492188 C391.447922,31.8971477 392.98762,33.9088463 394.947266,35.484375 C396.906911,37.0599037 399.247382,37.9778633 401.96875,38.2382812 L401.96875,41.265625 Z M408.101562,1.87109375 C411.708351,2.10546992 414.748686,3.13085029 417.222656,4.94726562 C419.696627,6.76368096 421.672519,9.21482832 423.150391,12.3007813 C424.628263,15.3867342 425.367188,18.4791512 425.367188,21.578125 C425.367188,24.6770988 424.628263,27.7695158 423.150391,30.8554688 C421.672519,33.9414217 419.696627,36.392569 417.222656,38.2089844 C414.748686,40.0253997 411.708351,41.0442697 408.101562,41.265625 L408.101562,38.2382812 C410.82293,37.9778633 413.163402,37.0599037 415.123047,35.484375 C417.082692,33.9088463 418.625645,31.8971477 419.751953,29.4492188 C420.878261,27.0012898 421.441406,24.3776182 421.441406,21.578125 C421.441406,18.7786318 420.878261,16.1549602 419.751953,13.7070312 C418.625645,11.2591023 417.082692,9.24414854 415.123047,7.66210938 C413.163402,6.08007021 410.82293,5.16536582 408.101562,4.91796875 L408.101562,1.87109375 Z M437.320312,42.4765625 L437.320312,40.0546875 C438.257817,39.8072904 438.970701,39.4524763 439.458984,38.9902344 C439.947268,38.5279925 440.337889,37.9420608 440.630859,37.2324219 C440.92383,36.5227829 441.070312,35.6666717 441.070312,34.6640625 C439.859369,34.6640625 438.967451,34.322269 438.394531,33.6386719 C437.821612,32.9550747 437.535156,32.2226602 437.535156,31.4414062 C437.535156,30.5429643 437.854163,29.7845083 438.492188,29.1660156 C439.130212,28.5475229 439.872392,28.2382812 440.71875,28.2382812 C441.812505,28.2382812 442.756506,28.7102817 443.550781,29.6542969 C444.345056,30.598312 444.742188,31.8906168 444.742188,33.53125 C444.742188,34.9635488 444.429691,36.3144468 443.804688,37.5839844 C443.179684,38.853522 442.330083,39.9374955 441.255859,40.8359375 C440.181635,41.7343795 438.869799,42.281249 437.320312,42.4765625 L437.320312,42.4765625 Z M440.71875,17.9453125 C439.84635,17.9453125 439.097659,17.6328156 438.472656,17.0078125 C437.847653,16.3828094 437.535156,15.6341189 437.535156,14.7617188 C437.535156,13.8762977 437.850908,13.1243521 438.482422,12.5058594 C439.113935,11.8873667 439.859371,11.578125 440.71875,11.578125 C441.578129,11.578125 442.323565,11.8873667 442.955078,12.5058594 C443.586592,13.1243521 443.902344,13.8762977 443.902344,14.7617188 C443.902344,15.6341189 443.589847,16.3828094 442.964844,17.0078125 C442.339841,17.6328156 441.59115,17.9453125 440.71875,17.9453125 L440.71875,17.9453125 Z" id=").turnOn();" fill="#E4E4E4"></path>
                </g>
                <path d="M11.3203125,128.578125 C10.1093689,127.940101 9.22070596,127.315107 8.65429688,126.703125 C8.08788779,126.091143 7.66797012,125.462894 7.39453125,124.818359 C7.12109238,124.173825 6.984375,123.4349 6.984375,122.601562 C6.984375,121.859371 7.10807168,120.889329 7.35546875,119.691406 L7.84375,117.464844 C8.10416797,116.2539 8.234375,115.355472 8.234375,114.769531 C8.234375,113.975256 7.9251333,113.301435 7.30664062,112.748047 C6.68814795,112.194659 5.41537422,111.917969 3.48828125,111.917969 L0.4609375,111.917969 L0.4609375,108.871094 L3.52734375,108.871094 C7.09506992,108.871094 9.3964792,109.44726 10.4316406,110.599609 C11.4668021,111.751959 11.984375,113.044264 11.984375,114.476562 C11.984375,115.257816 11.8802094,116.091141 11.671875,116.976562 L11.3203125,118.539062 L10.9882812,120.238281 L10.7539062,121.253906 C10.66276,121.7487 10.6171875,122.223956 10.6171875,122.679688 C10.6171875,123.87761 11.0240845,124.906246 11.8378906,125.765625 C12.6516968,126.625004 14.0872293,127.054688 16.1445312,127.054688 L17.8828125,127.054688 L17.8828125,130.082031 L16.1445312,130.082031 C14.1132711,130.082031 12.6842489,130.508459 11.8574219,131.361328 C11.0305948,132.214197 10.6171875,133.272129 10.6171875,134.535156 C10.6171875,134.990888 10.66276,135.440102 10.7539062,135.882812 L10.9882812,136.917969 L11.3203125,138.617188 L11.671875,140.179688 C11.8802094,141.078129 11.984375,141.911454 11.984375,142.679688 C11.984375,144.125007 11.4668021,145.417312 10.4316406,146.556641 C9.3964792,147.695969 7.09506992,148.265625 3.52734375,148.265625 L0.4609375,148.265625 L0.4609375,145.238281 L3.48828125,145.238281 C5.41537422,145.238281 6.68814795,144.961591 7.30664062,144.408203 C7.9251333,143.854815 8.234375,143.174483 8.234375,142.367188 C8.234375,141.794268 8.10416797,140.90235 7.84375,139.691406 L7.35546875,137.464844 C7.10807168,136.266921 6.984375,135.296879 6.984375,134.554688 C6.984375,133.72135 7.12109238,132.982425 7.39453125,132.337891 C7.66797012,131.693356 8.08788779,131.065107 8.65429688,130.453125 C9.22070596,129.841143 10.1093689,129.216149 11.3203125,128.578125 L11.3203125,128.578125 Z M25.0703125,108.871094 C28.6771014,109.10547 31.7174355,110.13085 34.1914062,111.947266 C36.665377,113.763681 38.6412687,116.214828 40.1191406,119.300781 C41.5970126,122.386734 42.3359375,125.479151 42.3359375,128.578125 C42.3359375,131.677099 41.5970126,134.769516 40.1191406,137.855469 C38.6412687,140.941422 36.665377,143.392569 34.1914062,145.208984 C31.7174355,147.0254 28.6771014,148.04427 25.0703125,148.265625 L25.0703125,145.238281 C27.7916803,144.977863 30.1321517,144.059904 32.0917969,142.484375 C34.0514421,140.908846 35.5943954,138.897148 36.7207031,136.449219 C37.8470108,134.00129 38.4101562,131.377618 38.4101562,128.578125 C38.4101562,125.778632 37.8470108,123.15496 36.7207031,120.707031 C35.5943954,118.259102 34.0514421,116.244149 32.0917969,114.662109 C30.1321517,113.08007 27.7916803,112.165366 25.0703125,111.917969 L25.0703125,108.871094 Z M54.2890625,149.476562 L54.2890625,147.054688 C55.2265672,146.80729 55.9394507,146.452476 56.4277344,145.990234 C56.9160181,145.527992 57.3066392,144.942061 57.5996094,144.232422 C57.8925796,143.522783 58.0390625,142.666672 58.0390625,141.664062 C56.8281189,141.664062 55.9362008,141.322269 55.3632812,140.638672 C54.7903617,139.955075 54.5039062,139.22266 54.5039062,138.441406 C54.5039062,137.542964 54.8229135,136.784508 55.4609375,136.166016 C56.0989615,135.547523 56.8411416,135.238281 57.6875,135.238281 C58.7812555,135.238281 59.7252564,135.710282 60.5195312,136.654297 C61.3138061,137.598312 61.7109375,138.890617 61.7109375,140.53125 C61.7109375,141.963549 61.3984406,143.314447 60.7734375,144.583984 C60.1484344,145.853522 59.2988335,146.937496 58.2246094,147.835938 C57.1503853,148.734379 55.8385494,149.281249 54.2890625,149.476562 L54.2890625,149.476562 Z M57.6875,124.945312 C56.8150998,124.945312 56.0664094,124.632816 55.4414062,124.007812 C54.8164031,123.382809 54.5039062,122.634119 54.5039062,121.761719 C54.5039062,120.876298 54.8196583,120.124352 55.4511719,119.505859 C56.0826854,118.887367 56.8281207,118.578125 57.6875,118.578125 C58.5468793,118.578125 59.2923146,118.887367 59.9238281,119.505859 C60.5553417,120.124352 60.8710938,120.876298 60.8710938,121.761719 C60.8710938,122.634119 60.5585969,123.382809 59.9335938,124.007812 C59.3085906,124.632816 58.5599002,124.945312 57.6875,124.945312 L57.6875,124.945312 Z" id="});" fill="#E4E4E4"></path>
            </g>
            <circle id="Oval-4" fill="#BE3232" cx="30" cy="27" r="9"></circle>
            <circle id="Oval-4" fill="#EBA63D" cx="60" cy="27" r="9"></circle>
            <circle id="Oval-4" fill="#AFE6E3" cx="90" cy="27" r="9"></circle>
            <path d="M216.347656,191.605469 L213.730469,191.605469 L211.679688,179.476562 L218.339844,179.476562 L216.347656,191.605469 Z M228.398438,202.816406 L228.398438,200.082031 L232.226562,200.082031 L234.375,192.054688 L228.398438,192.054688 L228.398438,189.339844 L235.058594,189.339844 L237.34375,180.6875 L240.195312,180.6875 L237.910156,189.339844 L243.4375,189.339844 L245.820312,180.6875 L248.671875,180.6875 L246.328125,189.339844 L249.609375,189.339844 L249.609375,192.054688 L245.566406,192.054688 L243.4375,200.082031 L249.609375,200.082031 L249.609375,202.816406 L242.675781,202.816406 L240.449219,211 L237.558594,211 L239.824219,202.816406 L234.375,202.816406 L232.226562,211 L229.335938,211 L231.503906,202.816406 L228.398438,202.816406 Z M235.097656,200.082031 L240.566406,200.082031 L242.773438,192.054688 L237.1875,192.054688 L235.097656,200.082031 Z M259.902344,211 L259.902344,182.523438 L253.378906,182.523438 L253.378906,179.476562 L263.535156,179.476562 L263.535156,207.972656 L270.351562,207.972656 L270.351562,211 L259.902344,211 Z M296.191406,209.554688 C293.287746,210.934903 290.540378,211.625 287.949219,211.625 C285.983063,211.625 284.225268,211.136724 282.675781,210.160156 C281.126294,209.183589 279.886072,207.787118 278.955078,205.970703 C278.024084,204.154288 277.558594,202.210948 277.558594,200.140625 C277.558594,198.148428 278.001298,196.234384 278.886719,194.398438 C279.77214,192.562491 281.009107,191.133469 282.597656,190.111328 C284.186206,189.089188 285.957021,188.578125 287.910156,188.578125 C290.501315,188.578125 292.581372,189.502595 294.150391,191.351562 C295.719409,193.20053 296.503906,196.052064 296.503906,199.90625 L296.503906,200.6875 L281.464844,200.6875 C281.464844,202.197924 281.780596,203.578119 282.412109,204.828125 C283.043623,206.078131 283.873693,207.015622 284.902344,207.640625 C285.930995,208.265628 287.102858,208.578125 288.417969,208.578125 C290.76173,208.578125 293.35285,207.796883 296.191406,206.234375 L296.191406,209.554688 Z M281.679688,197.972656 L292.558594,197.972656 L292.558594,197.445312 C292.558594,195.661449 292.1224,194.242193 291.25,193.1875 C290.3776,192.132807 289.212247,191.605469 287.753906,191.605469 C286.282545,191.605469 285.009771,192.142573 283.935547,193.216797 C282.861323,194.291021 282.109377,195.876292 281.679688,197.972656 L281.679688,197.972656 Z M316.621094,206.097656 C315.514317,207.920582 314.18295,209.294266 312.626953,210.21875 C311.070956,211.143234 309.641934,211.605469 308.339844,211.605469 C306.516918,211.605469 304.879565,210.817716 303.427734,209.242188 C301.975904,207.666659 301.25,205.27736 301.25,202.074219 C301.25,199.548164 301.731766,197.292328 302.695312,195.306641 C303.658859,193.320954 304.947909,191.751959 306.5625,190.599609 C308.177091,189.44726 310.175769,188.871094 312.558594,188.871094 C313.248701,188.871094 314.290358,188.942708 315.683594,189.085938 C315.891928,189.111979 316.204425,189.144531 316.621094,189.183594 L316.621094,179.476562 L320.273438,179.476562 L320.273438,211 L316.621094,211 L316.621094,206.097656 Z M316.621094,201.78125 L316.621094,192.425781 C315.332025,192.087238 314.13412,191.917969 313.027344,191.917969 C310.787749,191.917969 308.922533,192.783846 307.431641,194.515625 C305.940748,196.247404 305.195312,198.604152 305.195312,201.585938 C305.195312,203.747407 305.602209,205.37825 306.416016,206.478516 C307.229822,207.578782 308.157547,208.128906 309.199219,208.128906 C310.332037,208.128906 311.582024,207.555995 312.949219,206.410156 C314.316413,205.264317 315.540359,203.721364 316.621094,201.78125 L316.621094,201.78125 Z M336.367188,191.605469 L333.75,191.605469 L331.699219,179.476562 L338.359375,179.476562 L336.367188,191.605469 Z" id="$('#led').turnOn();" fill="#ECBC35"></path>
        </g>
    </g>
</svg>